<svg width="171" height="34" viewBox="0 0 171 34" fill="none" xmlns="http://www.w3.org/2000/svg">
<path d="M155.416 30.7445C162.408 30.7445 168.075 25.0768 168.075 18.0853C168.075 11.0938 162.408 5.42603 155.416 5.42603C148.425 5.42603 142.757 11.0938 142.757 18.0853C142.757 25.0768 148.425 30.7445 155.416 30.7445Z" fill="url(#paint0_linear_4015_23369)"/>
<path fill-rule="evenodd" clip-rule="evenodd" d="M99.0549 2.54321H108.414C111.798 2.54321 114.221 3.25347 115.641 4.67397C117.062 6.09448 117.814 8.43414 117.814 11.7347C117.814 15.4949 117.104 18.0017 115.641 19.2969C114.179 20.592 111.38 21.2605 107.202 21.2605H105.405V33.6273H99.0549V2.54321ZM105.405 16.5812H107.16C108.873 16.5812 110.001 16.2469 110.586 15.6202C111.171 14.9935 111.463 13.6984 111.463 11.8183C111.463 10.0218 111.171 8.81016 110.586 8.18347C110.001 7.55677 108.873 7.22253 107.202 7.22253H105.405V16.5812Z" fill="url(#paint1_linear_4015_23369)"/>
<path fill-rule="evenodd" clip-rule="evenodd" d="M129.011 2.54321C132.353 2.54321 134.735 3.16991 136.155 4.38152C137.576 5.63491 138.286 7.68211 138.286 10.6067C138.286 13.9073 137.576 16.1216 136.114 17.2497C135.403 17.8346 134.275 18.2524 132.771 18.5866H133.105C134.818 18.5866 136.155 19.1715 137.033 20.2996C137.91 21.4276 138.328 23.057 138.202 25.1878C138.161 26.3994 138.161 27.6528 138.161 28.948C138.202 30.2849 138.244 31.3294 138.286 32.0396C138.324 32.6834 138.43 33.1556 138.512 33.5184C138.521 33.5558 138.529 33.5921 138.537 33.6273H132.186C132.103 33.293 132.019 32.7917 131.977 32.0814C131.936 31.3712 131.894 30.3685 131.894 28.9897V25.2296C131.936 23.6837 131.643 22.5557 131.016 21.929C130.39 21.3023 129.345 20.968 127.799 20.968H125.961V33.6691H119.611V2.54321H129.011ZM126.003 16.2052H127.758C129.387 16.2052 130.515 15.9127 131.058 15.286C131.601 14.6593 131.894 13.4477 131.894 11.6512C131.894 9.93821 131.601 8.76838 131.016 8.18347C130.431 7.55677 129.345 7.26431 127.758 7.26431H126.003V16.2052Z" fill="url(#paint2_linear_4015_23369)"/>
<path fill-rule="evenodd" clip-rule="evenodd" d="M155.416 2.50171C146.809 2.50171 139.832 9.47882 139.832 18.0855C139.832 26.6922 146.809 33.6693 155.416 33.6693C164.023 33.6693 171 26.6922 171 18.0855C171 9.47882 164.023 2.50171 155.416 2.50171ZM141.503 18.0855C141.503 10.4018 147.732 4.17289 155.416 4.17289C163.1 4.17289 169.329 10.4018 169.329 18.0855C169.329 25.7692 163.1 31.9981 155.416 31.9981C147.732 31.9981 141.503 25.7692 141.503 18.0855Z" fill="url(#paint3_linear_4015_23369)"/>
<path d="M57.8367 3.55987C57.4854 3.59702 57.2454 3.62241 57.2454 3.90975C57.2454 4.76832 57.5588 5.51104 58.1789 6.13111C58.799 6.75119 59.5417 7.06463 60.4003 7.06463C61.3202 7.06463 62.0901 6.75119 62.7102 6.13111C63.3303 5.51104 63.6437 4.76832 63.6437 3.90975C63.6437 3.62019 63.3986 3.58922 63.0387 3.54374C62.2553 3.44473 60.9279 3.27698 60.4003 0.223389C59.9223 3.33926 58.6099 3.47808 57.8367 3.55987Z" fill="url(#paint4_linear_4015_23369)"/>
<path d="M60.2691 8.63097C61.1345 8.63097 61.8023 8.33115 62.2997 7.87462L62.3065 7.86781C64.0781 11.9494 67.0013 13.6938 69.8904 13.6938C72.3367 13.6938 73.5632 11.9017 73.5632 11.9017C73.5632 11.9017 75.2531 16.4875 70.64 16.4875H50.1844C46.0551 16.4875 46.8183 12.3718 47.9903 11.9289C48.0993 12.6989 48.9443 13.6938 50.8317 13.6938H50.9408C53.9594 13.6393 56.3851 11.9494 58.3953 8.02453C58.8722 8.3993 59.4923 8.63097 60.2691 8.63097Z" fill="url(#paint5_linear_4015_23369)"/>
<path d="M76.6359 4.26444C76.6359 3.25597 76.9902 2.41103 77.7057 1.72963C78.4144 1.02098 79.2593 0.65984 80.2405 0.65984C81.2217 0.65984 82.0462 1.01417 82.7276 1.72963C83.4363 2.41103 83.7974 3.25597 83.7974 4.26444C83.7974 5.27291 83.4431 6.11784 82.7276 6.79924C82.0462 7.48064 81.2149 7.82134 80.2405 7.82134C79.2661 7.82134 78.4212 7.48064 77.7057 6.79924C76.9971 6.11784 76.6359 5.27291 76.6359 4.26444Z" fill="url(#paint6_linear_4015_23369)"/>
<path d="M77.3105 11.1125H77.7943C79.3343 11.1125 80.6221 11.5281 81.6646 12.3595C82.7344 13.1908 83.2659 14.5059 83.2659 16.3184V33.7009H83.0002C82.3188 33.7009 81.6374 33.6123 80.956 33.4351C80.3018 33.2579 79.6954 32.9786 79.1367 32.5902C78.6052 32.1745 78.1623 31.6567 77.8011 31.0366C77.474 30.3824 77.3105 29.5852 77.3105 28.6381V11.1125Z" fill="url(#paint7_linear_4015_23369)"/>
<path fill-rule="evenodd" clip-rule="evenodd" d="M70.8445 27.8689C70.7832 27.5418 70.7559 27.2011 70.7559 26.8468H70.7628V23.8554C70.7628 23.66 70.7565 23.4709 70.7438 23.2881V18.9085H50.152V28.6661C50.152 31.4394 52.4006 33.688 55.1739 33.688H61.9334C63.5403 33.688 65.047 33.2576 66.3442 32.5057C67.2856 33.355 68.6108 33.7766 70.3198 33.7766C71.4442 33.7766 72.4117 33.4632 73.209 32.8431C74.0062 32.2162 74.4082 31.4326 74.4082 30.4855C74.4082 30.2538 74.3878 30.0153 74.3605 29.7768C74.3265 29.5656 74.2515 29.3475 74.1357 29.109C73.9244 29.2862 73.7064 29.402 73.4679 29.4634C73.2022 29.5519 72.9501 29.5996 72.7116 29.5996C72.2687 29.5996 71.928 29.5111 71.6895 29.3339C71.4237 29.1908 71.2261 28.9796 71.1103 28.7138C70.9604 28.4753 70.8718 28.1959 70.8445 27.8689ZM55.6032 24.3597H64.8073V26.6162C64.2181 27.5872 63.1507 28.2368 61.9334 28.2368H55.6032V24.3597Z" fill="url(#paint8_linear_4015_23369)"/>
<path d="M27.7818 1.42109H28.2656C29.8056 1.42109 31.0934 1.83674 32.1359 2.66805C33.2057 3.49936 33.7372 4.81446 33.7372 6.62698V33.6989H33.4715C32.7901 33.6989 32.1087 33.6104 31.4273 33.4332C30.7731 33.256 30.1667 32.9767 29.608 32.5883C29.0765 32.1726 28.6267 31.6547 28.2724 31.0347C27.9453 30.3805 27.7818 29.5833 27.7818 28.6361V1.42109Z" fill="url(#paint9_linear_4015_23369)"/>
<path d="M37.9074 18.0472C37.9074 17.6929 37.8801 17.3522 37.8188 17.0251C37.7915 16.698 37.703 16.4187 37.5531 16.1802C37.4372 15.9144 37.2396 15.7032 36.9739 15.5601C36.7354 15.3829 36.3947 15.2944 35.9518 15.2944C35.7133 15.2944 35.4612 15.3421 35.1954 15.4306C34.9569 15.492 34.7389 15.6078 34.5276 15.785C34.4118 15.5465 34.3369 15.3284 34.3028 15.1172C34.2755 14.8787 34.2551 14.6402 34.2551 14.4085C34.2551 13.4614 34.6571 12.6778 35.4543 12.0509C36.2516 11.4308 37.2192 11.1174 38.3435 11.1174C40.1219 11.1174 41.4847 11.5739 42.4319 12.4938C43.379 13.3796 43.856 14.6743 43.856 16.3642V33.6989C43.1746 33.6989 42.4796 33.624 41.7641 33.4741C41.0827 33.2969 40.4422 33.0175 39.8494 32.6291C39.2838 32.2135 38.8136 31.682 38.4253 31.0279C38.0709 30.3465 37.8938 29.4879 37.8938 28.4522V18.054L37.9074 18.0472Z" fill="url(#paint10_linear_4015_23369)"/>
<path d="M15.5563 33.6921H15.9924V6.75644C15.9924 5.68665 15.8289 4.81446 15.5018 4.13306C15.1747 3.45166 14.7455 2.92017 14.214 2.53177C13.6825 2.11612 13.076 1.83674 12.3946 1.68684C11.7132 1.50967 11.0114 1.42109 10.3027 1.42109H9.59409V28.4045C9.59409 29.5015 9.75763 30.3873 10.0847 31.0687C10.439 31.7501 10.8887 32.2816 11.4202 32.67C11.9858 33.0516 12.6263 33.3174 13.335 33.4673C14.0436 33.6172 14.7863 33.6921 15.5563 33.6921Z" fill="url(#paint11_linear_4015_23369)"/>
<path d="M0.265746 4.30341C0.0885819 4.80764 0 5.31188 0 5.81611L0.00681388 5.80248C0.00681388 6.74963 0.183978 7.50598 0.538305 8.07154C0.892633 8.6371 1.32191 9.08001 1.82615 9.40708C2.33038 9.73415 2.86187 9.95901 3.42743 10.0749C3.98618 10.1634 4.47679 10.2111 4.89244 10.2111C5.24677 10.2111 5.53977 10.1839 5.77826 10.1225V7.94207C5.77826 7.37651 5.92817 6.96086 6.22117 6.69512C6.51417 6.40211 6.88894 6.25221 7.33185 6.25221C7.87015 6.25221 8.34032 6.42937 8.75597 6.7837C8.84455 6.55202 8.89225 6.34079 8.89225 6.16362C8.92632 5.95239 8.93995 5.73434 8.93995 5.49585C8.93995 5.14153 8.85137 4.7395 8.6742 4.29659C8.52429 3.82643 8.27218 3.39715 7.91785 3.00875C7.59078 2.5931 7.14787 2.2524 6.58231 1.98665C6.01675 1.69365 5.31491 1.54374 4.53811 1.54374C3.76132 1.54374 3.10036 1.68002 2.5348 1.94577C1.96924 2.18426 1.49908 2.51133 1.11068 2.92698C0.722283 3.34263 0.442909 3.79917 0.265746 4.30341Z" fill="url(#paint12_linear_4015_23369)"/>
<path d="M25.1163 8.08517C25.4707 7.51961 25.6478 6.76325 25.6478 5.81611L25.6683 5.82974C25.6683 5.35957 25.5593 4.86897 25.3548 4.36473C25.1777 3.83324 24.8983 3.37671 24.5099 2.98831C24.1556 2.57265 23.6786 2.23196 23.0858 1.96621C22.5202 1.70046 21.8184 1.56419 21.0416 1.56419C20.2648 1.56419 19.6038 1.71409 19.0383 2.00709C18.5 2.27284 18.0571 2.61354 17.7027 3.02919C17.3757 3.41077 17.1235 3.84006 16.9464 4.31703C16.7965 4.75994 16.7215 5.16197 16.7215 5.5163V6.18407C16.7488 6.36123 16.8101 6.56565 16.8987 6.80414C17.2871 6.44981 17.7572 6.27265 18.3228 6.27265C18.7657 6.27265 19.1405 6.42255 19.4335 6.71556C19.7265 7.00856 19.8764 7.47191 19.8764 8.09198V10.1362C20.1081 10.1975 20.4079 10.2248 20.7622 10.2248C21.1779 10.2248 21.6617 10.1771 22.2272 10.0885C22.7928 9.96583 23.3243 9.74778 23.8285 9.42071C24.3327 9.09364 24.762 8.65073 25.1163 8.08517Z" fill="url(#paint13_linear_4015_23369)"/>
<path d="M86.9792 27.4099C86.2637 28.0913 85.9094 28.9362 85.9094 29.9447C85.9094 30.9532 86.2706 31.7981 86.9792 32.4795C87.6947 33.1609 88.5396 33.5016 89.514 33.5016C90.4884 33.5016 91.3197 33.1609 92.0011 32.4795C92.7166 31.7981 93.0709 30.9532 93.0709 29.9447C93.0709 28.9362 92.7098 28.0913 92.0011 27.4099C91.3197 26.6944 90.4952 26.3401 89.514 26.3401C88.5328 26.3401 87.6879 26.7013 86.9792 27.4099Z" fill="url(#paint14_linear_4015_23369)"/>
<defs>
<linearGradient id="paint0_linear_4015_23369" x1="142.76" y1="23.4768" x2="164.216" y2="23.4768" gradientUnits="userSpaceOnUse">
<stop stop-color="#FF8F01"/>
<stop offset="1" stop-color="#ED1C24"/>
</linearGradient>
<linearGradient id="paint1_linear_4015_23369" x1="99.0642" y1="24.7225" x2="160.034" y2="24.7225" gradientUnits="userSpaceOnUse">
<stop stop-color="#FF8F01"/>
<stop offset="1" stop-color="#ED1C24"/>
</linearGradient>
<linearGradient id="paint2_linear_4015_23369" x1="99.0642" y1="24.7225" x2="160.034" y2="24.7225" gradientUnits="userSpaceOnUse">
<stop stop-color="#FF8F01"/>
<stop offset="1" stop-color="#ED1C24"/>
</linearGradient>
<linearGradient id="paint3_linear_4015_23369" x1="139.85" y1="24.7226" x2="172.956" y2="24.7226" gradientUnits="userSpaceOnUse">
<stop stop-color="#FF8F01"/>
<stop offset="1" stop-color="#ED1C24"/>
</linearGradient>
<linearGradient id="paint4_linear_4015_23369" x1="89.4902" y1="19.5258" x2="17.1448" y2="37.4363" gradientUnits="userSpaceOnUse">
<stop stop-color="#FF8F00"/>
<stop offset="1" stop-color="#FFC700"/>
</linearGradient>
<linearGradient id="paint5_linear_4015_23369" x1="89.4902" y1="19.5258" x2="17.1448" y2="37.4363" gradientUnits="userSpaceOnUse">
<stop stop-color="#FF8F00"/>
<stop offset="1" stop-color="#FFC700"/>
</linearGradient>
<linearGradient id="paint6_linear_4015_23369" x1="89.4902" y1="19.5258" x2="17.1448" y2="37.4363" gradientUnits="userSpaceOnUse">
<stop stop-color="#FF8F00"/>
<stop offset="1" stop-color="#FFC700"/>
</linearGradient>
<linearGradient id="paint7_linear_4015_23369" x1="89.4902" y1="19.5258" x2="17.1448" y2="37.4363" gradientUnits="userSpaceOnUse">
<stop stop-color="#FF8F00"/>
<stop offset="1" stop-color="#FFC700"/>
</linearGradient>
<linearGradient id="paint8_linear_4015_23369" x1="89.4902" y1="19.5258" x2="17.1448" y2="37.4363" gradientUnits="userSpaceOnUse">
<stop stop-color="#FF8F00"/>
<stop offset="1" stop-color="#FFC700"/>
</linearGradient>
<linearGradient id="paint9_linear_4015_23369" x1="89.4902" y1="19.5258" x2="17.1448" y2="37.4363" gradientUnits="userSpaceOnUse">
<stop stop-color="#FF8F00"/>
<stop offset="1" stop-color="#FFC700"/>
</linearGradient>
<linearGradient id="paint10_linear_4015_23369" x1="89.4902" y1="19.5258" x2="17.1448" y2="37.4363" gradientUnits="userSpaceOnUse">
<stop stop-color="#FF8F00"/>
<stop offset="1" stop-color="#FFC700"/>
</linearGradient>
<linearGradient id="paint11_linear_4015_23369" x1="89.4902" y1="19.5258" x2="17.1448" y2="37.4363" gradientUnits="userSpaceOnUse">
<stop stop-color="#FF8F00"/>
<stop offset="1" stop-color="#FFC700"/>
</linearGradient>
<linearGradient id="paint12_linear_4015_23369" x1="89.4902" y1="19.5258" x2="17.1448" y2="37.4363" gradientUnits="userSpaceOnUse">
<stop stop-color="#FF8F00"/>
<stop offset="1" stop-color="#FFC700"/>
</linearGradient>
<linearGradient id="paint13_linear_4015_23369" x1="89.4902" y1="19.5258" x2="17.1448" y2="37.4363" gradientUnits="userSpaceOnUse">
<stop stop-color="#FF8F00"/>
<stop offset="1" stop-color="#FFC700"/>
</linearGradient>
<linearGradient id="paint14_linear_4015_23369" x1="89.4902" y1="19.5258" x2="17.1448" y2="37.4363" gradientUnits="userSpaceOnUse">
<stop stop-color="#FF8F00"/>
<stop offset="1" stop-color="#FFC700"/>
</linearGradient>
</defs>
</svg>
